<?xml version="1.0" encoding="UTF-8" standalone="no"?><svg xmlns="http://www.w3.org/2000/svg" xmlns:xlink="http://www.w3.org/1999/xlink" clip-rule="evenodd" fill="#7fd2ca" fill-rule="evenodd" height="511.8" image-rendering="optimizeQuality" preserveAspectRatio="xMidYMid meet" shape-rendering="geometricPrecision" text-rendering="geometricPrecision" version="1" viewBox="0.1 0.1 511.8 511.8" width="511.8" zoomAndPan="magnify"><g id="change1_1"><path d="M256 0.09c141.33,0 255.91,114.58 255.91,255.91 0,141.33 -114.58,255.91 -255.91,255.91 -141.33,0 -255.91,-114.58 -255.91,-255.91 0,-141.33 114.58,-255.91 255.91,-255.91zm-105.46 366.03l36.07 0 0 -142.89 -36.07 0 0 142.89zm112.62 -75.3c0,-22.54 10.62,-40.61 35.08,-40.61 24.15,0 31.97,19.47 31.97,40.61l0 75.32 35.85 0 0 -92.06c0,-32.7 -15.84,-55.57 -50.38,-55.57 -15.68,0 -33.79,8.22 -41.45,22.49l-11.07 20.19 0 -37.96 -34.13 0 0 142.89 34.13 0 0 -75.3zm11.81 0l0 87.11 -57.75 0 0 -166.51 57.75 0 0 10.63c11.4,-10.21 25.4,-15.35 40.71,-15.35 41.06,0 62.19,28.14 62.19,67.38l0 103.82 -59.47 0.01 0 -87.09c0,-14.2 -3.13,-28.8 -20.16,-28.8 -17.76,0 -23.27,12.92 -23.27,28.8zm-106.62 -99.65c12.5,0 22.41,-10.22 22.41,-22.65 0,-12.44 -9.91,-22.64 -22.41,-22.64 -12.5,0 -22.41,10.2 -22.41,22.64 0,12.43 9.9,22.65 22.41,22.65zm0 11.81c-18.97,0 -34.22,-15.56 -34.22,-34.46 0,-18.9 15.25,-34.45 34.22,-34.45 18.96,0 34.22,15.55 34.22,34.45 0,18.89 -15.26,34.46 -34.22,34.46zm-29.62 174.95l0 -166.51 59.69 0 0 166.51 -59.69 0zm117.27 -366.02c-134.81,0 -244.1,109.28 -244.1,244.09 0,134.81 109.29,244.09 244.1,244.09 134.81,0 244.1,-109.28 244.1,-244.09 0,-134.81 -109.29,-244.09 -244.1,-244.09z" fill-rule="nonzero"/></g></svg>